<svg width="14px" height="14px" viewBox="0 0 8.96 8.96" xmlns="http://www.w3.org/2000/svg" xmlns:xlink="http://www.w3.org/1999/xlink" aria-hidden="true" role="img" class="iconify iconify--fxemoji" preserveAspectRatio="xMidYMid meet"><path fill="#DADBDC" d="M0.523 2.308 4.417 0.366a0.13 0.13 0 0 1 0.116 0l3.902 1.942c0.123 0.061 0.08 0.247 -0.058 0.247H0.581c-0.138 0 -0.181 -0.186 -0.058 -0.247M8.449 2.7H0.511c-0.07 0 -0.126 0.039 -0.126 0.108v1.044a0.126 0.126 0 0 0 0.126 0.126h0.268v3.84c0 0.139 0.113 0.252 0.252 0.252h6.899c0.139 0 0.252 -0.113 0.252 -0.252V3.978h0.268a0.126 0.126 0 0 0 0.126 -0.126v-1.044c0 -0.07 -0.056 -0.108 -0.126 -0.108"/><path fill="#999" d="M8.547 8.822H0.413c-0.182 0 -0.295 -0.199 -0.202 -0.355l0.319 -0.535a0.235 0.235 0 0 1 0.202 -0.114h7.495c0.083 0 0.159 0.043 0.202 0.114l0.319 0.535c0.093 0.156 -0.019 0.355 -0.202 0.355"/><path fill="#C8CACB" d="m5.815 8.47 -2.678 0.004 -0.001 -0.654 2.678 -0.004z"/><path fill="#EBECED" d="M6.209 8.822h-3.465v-0.362a0.126 0.126 0 0 1 0.126 -0.126h3.213a0.126 0.126 0 0 1 0.126 0.126z"/><path fill="#767777" d="M2.238 7.818H1.444V3.588h0.794zM3.997 3.588h-0.794v4.231h0.794zm1.76 0h-0.794v4.231h0.794zm1.76 0h-0.794v4.231h0.794z"/><path fill="#999" d="M8.685 2.982H0.275a0.126 0.126 0 0 1 -0.126 -0.126v-0.331a0.126 0.126 0 0 1 0.126 -0.126h8.411a0.126 0.126 0 0 1 0.126 0.126v0.331a0.126 0.126 0 0 1 -0.126 0.126m0.126 1.067v-0.348a0.126 0.126 0 0 0 -0.126 -0.126H0.275a0.126 0.126 0 0 0 -0.126 0.126v0.348a0.126 0.126 0 0 0 0.126 0.126h8.411a0.126 0.126 0 0 0 0.126 -0.126"/></svg>